@startuml "Enfer"


class Matchesimple{

}
class Matchedouble{

}


class Arbitre{
    attribut : name
}

class Joueurs{
    attribut : name
    attribut : capitaine
    attribut : classement
}

class Set{
    methode : service ()
}

class Score{

}

class Rencontre{

}
class Historique{

}

Joueurs <--o Rencontre
Matchesimple <-- Rencontre
Matchedouble <-- Rencontre

Historique*-->Score

Set *--> Score
Matchesimple -->Set
Matchedouble -->Set

Arbitre <--o Rencontre







@enduml